<svg width="536" height="52" viewBox="0 0 536 52" fill="none" xmlns="http://www.w3.org/2000/svg">
<g opacity="0.4">
<g opacity="0.1">
<path d="M384.495 0H403.667L372.171 36H353L384.495 0Z" fill="url(#paint0_linear_36_44171)"/>
<path d="M425.162 0H444.334L412.838 36H393.667L425.162 0Z" fill="url(#paint1_linear_36_44171)"/>
<path d="M465.829 0H485L453.504 36H434.333L465.829 0Z" fill="url(#paint2_linear_36_44171)"/>
<path d="M506.495 0H525.667L494.171 36H475L506.495 0Z" fill="url(#paint3_linear_36_44171)"/>
</g>
<path opacity="0.4" d="M0 0H250V36H0V0Z" fill="url(#paint4_linear_36_44171)"/>
<path d="M31.4955 0H50.6667L19.1712 36H0L31.4955 0Z" fill="url(#paint5_linear_36_44171)" fill-opacity="0.4"/>
<path d="M72.1625 0H91.3337L59.8382 36H40.667L72.1625 0Z" fill="url(#paint6_linear_36_44171)" fill-opacity="0.4"/>
<path d="M112.829 0H132L100.504 36H81.333L112.829 0Z" fill="url(#paint7_linear_36_44171)" fill-opacity="0.4"/>
<path d="M153.495 0H172.667L141.171 36H122L153.495 0Z" fill="url(#paint8_linear_36_44171)" fill-opacity="0.4"/>
<path d="M1 32H204.873C208.148 32 211.28 30.6616 213.544 28.2952L236.59 4.20481C238.854 1.83841 241.986 0.5 245.261 0.5H250" stroke="url(#paint9_linear_36_44171)"/>
<mask id="path-12-inside-1_36_44171" fill="white">
<path d="M0 36L-4.37109e-08 35L250 35L250 36L0 36Z"/>
</mask>
<path d="M0 36L-1 36L-1 37L4.37114e-08 37L0 36ZM-4.37109e-08 35L-8.74223e-08 34L-1 34L-1 35L-4.37109e-08 35ZM250 35L251 35L251 34L250 34L250 35ZM250 36L250 37L251 37L251 36L250 36ZM0 36L1 36L1 35L-4.37109e-08 35L-1 35L-1 36L0 36ZM-4.37109e-08 35L0 36L250 36L250 35L250 34L-8.74223e-08 34L-4.37109e-08 35ZM250 35L249 35L249 36L250 36L251 36L251 35L250 35ZM250 36L250 35L-4.37114e-08 35L0 36L4.37114e-08 37L250 37L250 36Z" fill="url(#paint10_linear_36_44171)" mask="url(#path-12-inside-1_36_44171)"/>
<g opacity="0.3">
<g opacity="0.4" filter="url(#filter0_f_36_44171)">
<rect x="46" y="38" width="5" height="129" transform="rotate(-90 46 38)" fill="url(#paint11_linear_36_44171)"/>
</g>
<g opacity="0.4" filter="url(#filter1_f_36_44171)">
<rect x="46" y="37" width="3" height="129" transform="rotate(-90 46 37)" fill="url(#paint12_linear_36_44171)"/>
</g>
<g filter="url(#filter2_f_36_44171)">
<rect x="46" y="36" width="0.999999" height="129" transform="rotate(-90 46 36)" fill="url(#paint13_linear_36_44171)"/>
</g>
<g filter="url(#filter3_f_36_44171)">
<rect x="46" y="36" width="0.999999" height="129" transform="rotate(-90 46 36)" fill="url(#paint14_linear_36_44171)"/>
</g>
<g filter="url(#filter4_f_36_44171)">
<rect x="46" y="36" width="0.999999" height="129" transform="rotate(-90 46 36)" fill="url(#paint15_linear_36_44171)"/>
</g>
<g filter="url(#filter5_f_36_44171)">
<rect x="46" y="36" width="0.999999" height="129" transform="rotate(-90 46 36)" fill="url(#paint16_linear_36_44171)"/>
</g>
<rect opacity="0.8" x="46" y="36" width="0.999999" height="129" transform="rotate(-90 46 36)" fill="url(#paint17_linear_36_44171)"/>
</g>
<g opacity="0.6">
<g opacity="0.4" filter="url(#filter6_f_36_44171)">
<rect x="26" y="38" width="5" height="129" transform="rotate(-90 26 38)" fill="url(#paint18_linear_36_44171)"/>
</g>
<g opacity="0.4" filter="url(#filter7_f_36_44171)">
<rect x="26" y="37" width="3" height="129" transform="rotate(-90 26 37)" fill="url(#paint19_linear_36_44171)"/>
</g>
<g filter="url(#filter8_f_36_44171)">
<rect x="26" y="36" width="0.999999" height="129" transform="rotate(-90 26 36)" fill="url(#paint20_linear_36_44171)"/>
</g>
<g filter="url(#filter9_f_36_44171)">
<rect x="26" y="36" width="0.999999" height="129" transform="rotate(-90 26 36)" fill="url(#paint21_linear_36_44171)"/>
</g>
<g filter="url(#filter10_f_36_44171)">
<rect x="26" y="36" width="0.999999" height="129" transform="rotate(-90 26 36)" fill="url(#paint22_linear_36_44171)"/>
</g>
<g filter="url(#filter11_f_36_44171)">
<rect x="26" y="36" width="0.999999" height="129" transform="rotate(-90 26 36)" fill="url(#paint23_linear_36_44171)"/>
</g>
<rect opacity="0.8" x="26" y="36" width="0.999999" height="129" transform="rotate(-90 26 36)" fill="url(#paint24_linear_36_44171)"/>
</g>
<rect opacity="0.4" x="250" width="286" height="36" fill="url(#paint25_linear_36_44171)"/>
<rect x="250.25" y="35.25" width="113.5" height="0.5" stroke="url(#paint26_linear_36_44171)" stroke-width="0.5"/>
<path d="M536 0.5H250" stroke="url(#paint27_linear_36_44171)"/>
</g>
<defs>
<filter id="filter0_f_36_44171" x="32" y="19" width="157" height="33" filterUnits="userSpaceOnUse" color-interpolation-filters="sRGB">
<feFlood flood-opacity="0" result="BackgroundImageFix"/>
<feBlend mode="normal" in="SourceGraphic" in2="BackgroundImageFix" result="shape"/>
<feGaussianBlur stdDeviation="7" result="effect1_foregroundBlur_36_44171"/>
</filter>
<filter id="filter1_f_36_44171" x="36" y="24" width="149" height="23" filterUnits="userSpaceOnUse" color-interpolation-filters="sRGB">
<feFlood flood-opacity="0" result="BackgroundImageFix"/>
<feBlend mode="normal" in="SourceGraphic" in2="BackgroundImageFix" result="shape"/>
<feGaussianBlur stdDeviation="5" result="effect1_foregroundBlur_36_44171"/>
</filter>
<filter id="filter2_f_36_44171" x="42" y="31" width="137" height="9.00001" filterUnits="userSpaceOnUse" color-interpolation-filters="sRGB">
<feFlood flood-opacity="0" result="BackgroundImageFix"/>
<feBlend mode="normal" in="SourceGraphic" in2="BackgroundImageFix" result="shape"/>
<feGaussianBlur stdDeviation="2" result="effect1_foregroundBlur_36_44171"/>
</filter>
<filter id="filter3_f_36_44171" x="42" y="31" width="137" height="9.00001" filterUnits="userSpaceOnUse" color-interpolation-filters="sRGB">
<feFlood flood-opacity="0" result="BackgroundImageFix"/>
<feBlend mode="normal" in="SourceGraphic" in2="BackgroundImageFix" result="shape"/>
<feGaussianBlur stdDeviation="2" result="effect1_foregroundBlur_36_44171"/>
</filter>
<filter id="filter4_f_36_44171" x="44" y="33" width="133" height="5.00001" filterUnits="userSpaceOnUse" color-interpolation-filters="sRGB">
<feFlood flood-opacity="0" result="BackgroundImageFix"/>
<feBlend mode="normal" in="SourceGraphic" in2="BackgroundImageFix" result="shape"/>
<feGaussianBlur stdDeviation="1" result="effect1_foregroundBlur_36_44171"/>
</filter>
<filter id="filter5_f_36_44171" x="44" y="33" width="133" height="5.00001" filterUnits="userSpaceOnUse" color-interpolation-filters="sRGB">
<feFlood flood-opacity="0" result="BackgroundImageFix"/>
<feBlend mode="normal" in="SourceGraphic" in2="BackgroundImageFix" result="shape"/>
<feGaussianBlur stdDeviation="1" result="effect1_foregroundBlur_36_44171"/>
</filter>
<filter id="filter6_f_36_44171" x="12" y="19" width="157" height="33" filterUnits="userSpaceOnUse" color-interpolation-filters="sRGB">
<feFlood flood-opacity="0" result="BackgroundImageFix"/>
<feBlend mode="normal" in="SourceGraphic" in2="BackgroundImageFix" result="shape"/>
<feGaussianBlur stdDeviation="7" result="effect1_foregroundBlur_36_44171"/>
</filter>
<filter id="filter7_f_36_44171" x="16" y="24" width="149" height="23" filterUnits="userSpaceOnUse" color-interpolation-filters="sRGB">
<feFlood flood-opacity="0" result="BackgroundImageFix"/>
<feBlend mode="normal" in="SourceGraphic" in2="BackgroundImageFix" result="shape"/>
<feGaussianBlur stdDeviation="5" result="effect1_foregroundBlur_36_44171"/>
</filter>
<filter id="filter8_f_36_44171" x="22" y="31" width="137" height="9.00001" filterUnits="userSpaceOnUse" color-interpolation-filters="sRGB">
<feFlood flood-opacity="0" result="BackgroundImageFix"/>
<feBlend mode="normal" in="SourceGraphic" in2="BackgroundImageFix" result="shape"/>
<feGaussianBlur stdDeviation="2" result="effect1_foregroundBlur_36_44171"/>
</filter>
<filter id="filter9_f_36_44171" x="22" y="31" width="137" height="9.00001" filterUnits="userSpaceOnUse" color-interpolation-filters="sRGB">
<feFlood flood-opacity="0" result="BackgroundImageFix"/>
<feBlend mode="normal" in="SourceGraphic" in2="BackgroundImageFix" result="shape"/>
<feGaussianBlur stdDeviation="2" result="effect1_foregroundBlur_36_44171"/>
</filter>
<filter id="filter10_f_36_44171" x="24" y="33" width="133" height="5.00001" filterUnits="userSpaceOnUse" color-interpolation-filters="sRGB">
<feFlood flood-opacity="0" result="BackgroundImageFix"/>
<feBlend mode="normal" in="SourceGraphic" in2="BackgroundImageFix" result="shape"/>
<feGaussianBlur stdDeviation="1" result="effect1_foregroundBlur_36_44171"/>
</filter>
<filter id="filter11_f_36_44171" x="24" y="33" width="133" height="5.00001" filterUnits="userSpaceOnUse" color-interpolation-filters="sRGB">
<feFlood flood-opacity="0" result="BackgroundImageFix"/>
<feBlend mode="normal" in="SourceGraphic" in2="BackgroundImageFix" result="shape"/>
<feGaussianBlur stdDeviation="1" result="effect1_foregroundBlur_36_44171"/>
</filter>
<linearGradient id="paint0_linear_36_44171" x1="378.333" y1="0" x2="378.333" y2="36" gradientUnits="userSpaceOnUse">
<stop stop-color="#006DFF" stop-opacity="0.7"/>
<stop offset="1" stop-color="#0093FF"/>
</linearGradient>
<linearGradient id="paint1_linear_36_44171" x1="419" y1="0" x2="419" y2="36" gradientUnits="userSpaceOnUse">
<stop stop-color="#006DFF" stop-opacity="0.7"/>
<stop offset="1" stop-color="#0093FF"/>
</linearGradient>
<linearGradient id="paint2_linear_36_44171" x1="459.666" y1="0" x2="459.666" y2="36" gradientUnits="userSpaceOnUse">
<stop stop-color="#006DFF" stop-opacity="0.7"/>
<stop offset="1" stop-color="#0093FF"/>
</linearGradient>
<linearGradient id="paint3_linear_36_44171" x1="500.333" y1="0" x2="500.333" y2="36" gradientUnits="userSpaceOnUse">
<stop stop-color="#006DFF" stop-opacity="0.7"/>
<stop offset="1" stop-color="#0093FF"/>
</linearGradient>
<linearGradient id="paint4_linear_36_44171" x1="0" y1="18" x2="250" y2="18" gradientUnits="userSpaceOnUse">
<stop stop-color="#006CFF" stop-opacity="0.6"/>
<stop offset="1" stop-color="#006CFF" stop-opacity="0.6"/>
</linearGradient>
<linearGradient id="paint5_linear_36_44171" x1="25.3333" y1="0" x2="25.3333" y2="36" gradientUnits="userSpaceOnUse">
<stop stop-color="#006DFF" stop-opacity="0.2"/>
<stop offset="1" stop-color="#0093FF"/>
</linearGradient>
<linearGradient id="paint6_linear_36_44171" x1="66.0003" y1="0" x2="66.0003" y2="36" gradientUnits="userSpaceOnUse">
<stop stop-color="#006DFF" stop-opacity="0.2"/>
<stop offset="1" stop-color="#0093FF"/>
</linearGradient>
<linearGradient id="paint7_linear_36_44171" x1="106.666" y1="0" x2="106.666" y2="36" gradientUnits="userSpaceOnUse">
<stop stop-color="#006DFF" stop-opacity="0.2"/>
<stop offset="1" stop-color="#0093FF"/>
</linearGradient>
<linearGradient id="paint8_linear_36_44171" x1="147.333" y1="0" x2="147.333" y2="36" gradientUnits="userSpaceOnUse">
<stop stop-color="#006DFF" stop-opacity="0.2"/>
<stop offset="1" stop-color="#0093FF"/>
</linearGradient>
<linearGradient id="paint9_linear_36_44171" x1="140" y1="16.4718" x2="303" y2="16.4718" gradientUnits="userSpaceOnUse">
<stop stop-color="#098BF0" stop-opacity="0"/>
<stop offset="1" stop-color="#098BF0"/>
</linearGradient>
<linearGradient id="paint10_linear_36_44171" x1="-1.21732e-08" y1="35.4962" x2="187.835" y2="35.4962" gradientUnits="userSpaceOnUse">
<stop stop-color="#098BF0"/>
<stop offset="0.5" stop-color="#9AFFDC"/>
<stop offset="1" stop-color="#098BF0"/>
</linearGradient>
<linearGradient id="paint11_linear_36_44171" x1="48.5" y1="38" x2="48.5" y2="167" gradientUnits="userSpaceOnUse">
<stop stop-color="#F0F8FF" stop-opacity="0"/>
<stop offset="0.1875" stop-color="white"/>
<stop offset="1" stop-color="#F0F8FF" stop-opacity="0"/>
</linearGradient>
<linearGradient id="paint12_linear_36_44171" x1="47.5" y1="37" x2="47.5" y2="166" gradientUnits="userSpaceOnUse">
<stop stop-color="#F0F8FF" stop-opacity="0"/>
<stop offset="0.1875" stop-color="white"/>
<stop offset="1" stop-color="#F0F8FF" stop-opacity="0"/>
</linearGradient>
<linearGradient id="paint13_linear_36_44171" x1="46.5" y1="36" x2="46.5" y2="165" gradientUnits="userSpaceOnUse">
<stop stop-color="#F0F8FF" stop-opacity="0"/>
<stop offset="0.1875" stop-color="white"/>
<stop offset="1" stop-color="#F0F8FF" stop-opacity="0"/>
</linearGradient>
<linearGradient id="paint14_linear_36_44171" x1="46.5" y1="36" x2="46.5" y2="165" gradientUnits="userSpaceOnUse">
<stop stop-color="#F0F8FF" stop-opacity="0"/>
<stop offset="0.1875" stop-color="white"/>
<stop offset="1" stop-color="#F0F8FF" stop-opacity="0"/>
</linearGradient>
<linearGradient id="paint15_linear_36_44171" x1="46.5" y1="36" x2="46.5" y2="165" gradientUnits="userSpaceOnUse">
<stop stop-color="#F0F8FF" stop-opacity="0"/>
<stop offset="0.1875" stop-color="white"/>
<stop offset="1" stop-color="#F0F8FF" stop-opacity="0"/>
</linearGradient>
<linearGradient id="paint16_linear_36_44171" x1="46.5" y1="36" x2="46.5" y2="165" gradientUnits="userSpaceOnUse">
<stop stop-color="#F0F8FF" stop-opacity="0"/>
<stop offset="0.1875" stop-color="white"/>
<stop offset="1" stop-color="#F0F8FF" stop-opacity="0"/>
</linearGradient>
<linearGradient id="paint17_linear_36_44171" x1="46.5" y1="36" x2="46.5" y2="165" gradientUnits="userSpaceOnUse">
<stop stop-color="#F0F8FF" stop-opacity="0"/>
<stop offset="0.1875" stop-color="white"/>
<stop offset="1" stop-color="#F0F8FF" stop-opacity="0"/>
</linearGradient>
<linearGradient id="paint18_linear_36_44171" x1="28.5" y1="38" x2="28.5" y2="167" gradientUnits="userSpaceOnUse">
<stop stop-color="#F0F8FF" stop-opacity="0"/>
<stop offset="0.1875" stop-color="white"/>
<stop offset="1" stop-color="#F0F8FF" stop-opacity="0"/>
</linearGradient>
<linearGradient id="paint19_linear_36_44171" x1="27.5" y1="37" x2="27.5" y2="166" gradientUnits="userSpaceOnUse">
<stop stop-color="#F0F8FF" stop-opacity="0"/>
<stop offset="0.1875" stop-color="white"/>
<stop offset="1" stop-color="#F0F8FF" stop-opacity="0"/>
</linearGradient>
<linearGradient id="paint20_linear_36_44171" x1="26.5" y1="36" x2="26.5" y2="165" gradientUnits="userSpaceOnUse">
<stop stop-color="#F0F8FF" stop-opacity="0"/>
<stop offset="0.1875" stop-color="white"/>
<stop offset="1" stop-color="#F0F8FF" stop-opacity="0"/>
</linearGradient>
<linearGradient id="paint21_linear_36_44171" x1="26.5" y1="36" x2="26.5" y2="165" gradientUnits="userSpaceOnUse">
<stop stop-color="#F0F8FF" stop-opacity="0"/>
<stop offset="0.1875" stop-color="white"/>
<stop offset="1" stop-color="#F0F8FF" stop-opacity="0"/>
</linearGradient>
<linearGradient id="paint22_linear_36_44171" x1="26.5" y1="36" x2="26.5" y2="165" gradientUnits="userSpaceOnUse">
<stop stop-color="#F0F8FF" stop-opacity="0"/>
<stop offset="0.1875" stop-color="white"/>
<stop offset="1" stop-color="#F0F8FF" stop-opacity="0"/>
</linearGradient>
<linearGradient id="paint23_linear_36_44171" x1="26.5" y1="36" x2="26.5" y2="165" gradientUnits="userSpaceOnUse">
<stop stop-color="#F0F8FF" stop-opacity="0"/>
<stop offset="0.1875" stop-color="white"/>
<stop offset="1" stop-color="#F0F8FF" stop-opacity="0"/>
</linearGradient>
<linearGradient id="paint24_linear_36_44171" x1="26.5" y1="36" x2="26.5" y2="165" gradientUnits="userSpaceOnUse">
<stop stop-color="#F0F8FF" stop-opacity="0"/>
<stop offset="0.1875" stop-color="white"/>
<stop offset="1" stop-color="#F0F8FF" stop-opacity="0"/>
</linearGradient>
<linearGradient id="paint25_linear_36_44171" x1="250" y1="18" x2="512.226" y2="18" gradientUnits="userSpaceOnUse">
<stop stop-color="#006CFF" stop-opacity="0.6"/>
<stop offset="1" stop-color="#006CFF" stop-opacity="0"/>
</linearGradient>
<linearGradient id="paint26_linear_36_44171" x1="249.978" y1="34.9998" x2="363.997" y2="34.7664" gradientUnits="userSpaceOnUse">
<stop stop-color="#098BF0"/>
<stop offset="1" stop-color="#098BF0" stop-opacity="0"/>
</linearGradient>
<linearGradient id="paint27_linear_36_44171" x1="536" y1="0.500001" x2="250" y2="0.432258" gradientUnits="userSpaceOnUse">
<stop stop-color="#098BF0" stop-opacity="0"/>
<stop offset="1" stop-color="#098AEF"/>
</linearGradient>
</defs>
</svg>
