<svg width="59" height="66" viewBox="0 0 59 66" fill="none" xmlns="http://www.w3.org/2000/svg">
<g filter="url(#filter0_d_2070_332345)">
<path d="M53.729 14.7881V43.2109L29.1147 57.4229L4.50049 43.2109V14.7881L29.1147 0.576172L53.729 14.7881Z" stroke="url(#paint0_linear_2070_332345)" shape-rendering="crispEdges"/>
</g>
<g filter="url(#filter1_d_2070_332345)">
<path d="M29.1148 4.46154L50.3657 16.7308V41.2692L29.1148 53.5385L7.86382 41.2692V16.7308L29.1148 4.46154Z" fill="url(#paint1_linear_2070_332345)" fill-opacity="0.2" shape-rendering="crispEdges"/>
<path d="M29.1148 4.46154L50.3657 16.7308V41.2692L29.1148 53.5385L7.86382 41.2692V16.7308L29.1148 4.46154Z" fill="url(#paint2_radial_2070_332345)" fill-opacity="0.4" shape-rendering="crispEdges"/>
<path d="M49.8654 17.0192V40.9801L29.1144 52.9606L8.3634 40.9801V17.0192L29.1144 5.03771L49.8654 17.0192Z" stroke="url(#paint3_linear_2070_332345)" shape-rendering="crispEdges"/>
</g>
<path d="M35.7349 32.2119C35.3923 32.2119 35.0729 32.2816 34.7756 32.4087C34.7536 32.3855 34.7413 32.3623 34.7193 32.3403L28.6234 26.1851C28.4266 25.9858 28.1798 25.8429 27.9088 25.7716C27.6378 25.7002 27.3525 25.7029 27.0829 25.7793L27.0719 25.7683C27.0609 25.7793 27.0376 25.7793 27.0266 25.7915C26.8194 25.8543 26.6283 25.961 26.4662 26.1044C22.7233 28.3876 20.155 33.8925 20.155 38.4478C20.155 39.0845 20.0644 39.3864 20.155 40H31.8879V33.9976L32.4703 34.588C32.5731 34.6918 32.6759 34.7737 32.7897 34.8434C32.8152 35.123 32.9437 35.3833 33.1503 35.5736C33.3569 35.764 33.627 35.871 33.9081 35.8737C34.1701 35.8732 34.4238 35.7817 34.6258 35.6149C34.8278 35.4481 34.9655 35.2165 35.0154 34.9595H35.0386V34.7273C35.0386 34.3447 35.347 34.0428 35.7116 34.0428C36.0885 34.0428 36.3858 34.3557 36.3858 34.7273V40H38.1894V34.7273C38.1967 34.4003 38.1387 34.0752 38.0187 33.7708C37.8988 33.4665 37.7192 33.1891 37.4907 32.9549C37.2622 32.7207 36.9892 32.5344 36.6877 32.4068C36.3862 32.2792 36.0623 32.213 35.7349 32.2119ZM39.0912 20.9588C38.9994 20.5995 37.8688 20.1241 37.5152 20.2169L37.2986 20.2744L36.2255 19.046C36.1117 18.9189 35.5403 18.3274 35.1072 18.0731C34.4905 17.7138 29.7087 18.7454 29.092 19.7073C28.8302 20.1241 28.7152 20.6105 28.6589 20.8427L28.282 22.7323L28.0654 22.7897C27.7106 22.8826 26.9691 23.8678 27.0609 24.2271C27.082 24.313 27.1202 24.3938 27.1734 24.4646C27.2265 24.5355 27.2935 24.5948 27.3702 24.6391C27.4469 24.6834 27.5317 24.7117 27.6197 24.7224C27.7076 24.7331 27.7968 24.7259 27.8819 24.7013L29.3208 24.32C29.6634 26.1741 31.2725 27.576 33.2008 27.576C35.3812 27.576 37.1493 25.7915 37.1493 23.5891C37.1493 23.1259 37.0698 22.6736 36.9217 22.2568L38.6115 21.7924C38.6978 21.7692 38.7787 21.7292 38.8495 21.6747C38.9203 21.6202 38.9797 21.5523 39.0243 21.4749C39.0688 21.3975 39.0976 21.3121 39.1091 21.2235C39.1206 21.135 39.1145 21.045 39.0912 20.9588ZM36.0995 18.8957L36.2255 19.046C36.272 19.1035 36.2488 19.0693 36.0995 18.8957Z" fill="url(#paint4_linear_2070_332345)"/>
<defs>
<filter id="filter0_d_2070_332345" x="0" y="0" width="58.2295" height="66" filterUnits="userSpaceOnUse" color-interpolation-filters="sRGB">
<feFlood flood-opacity="0" result="BackgroundImageFix"/>
<feColorMatrix in="SourceAlpha" type="matrix" values="0 0 0 0 0 0 0 0 0 0 0 0 0 0 0 0 0 0 127 0" result="hardAlpha"/>
<feOffset dy="4"/>
<feGaussianBlur stdDeviation="2"/>
<feComposite in2="hardAlpha" operator="out"/>
<feColorMatrix type="matrix" values="0 0 0 0 0 0 0 0 0 0 0 0 0 0 0 0 0 0 0.25 0"/>
<feBlend mode="normal" in2="BackgroundImageFix" result="effect1_dropShadow_2070_332345"/>
<feBlend mode="normal" in="SourceGraphic" in2="effect1_dropShadow_2070_332345" result="shape"/>
</filter>
<filter id="filter1_d_2070_332345" x="3.86383" y="4.46154" width="50.5018" height="57.0769" filterUnits="userSpaceOnUse" color-interpolation-filters="sRGB">
<feFlood flood-opacity="0" result="BackgroundImageFix"/>
<feColorMatrix in="SourceAlpha" type="matrix" values="0 0 0 0 0 0 0 0 0 0 0 0 0 0 0 0 0 0 127 0" result="hardAlpha"/>
<feOffset dy="4"/>
<feGaussianBlur stdDeviation="2"/>
<feComposite in2="hardAlpha" operator="out"/>
<feColorMatrix type="matrix" values="0 0 0 0 0 0 0 0 0 0 0 0 0 0 0 0 0 0 0.25 0"/>
<feBlend mode="normal" in2="BackgroundImageFix" result="effect1_dropShadow_2070_332345"/>
<feBlend mode="normal" in="SourceGraphic" in2="effect1_dropShadow_2070_332345" result="shape"/>
</filter>
<linearGradient id="paint0_linear_2070_332345" x1="29.1147" y1="0" x2="29.1147" y2="58" gradientUnits="userSpaceOnUse">
<stop stop-color="#44FFFE" stop-opacity="0.3"/>
<stop offset="1" stop-color="#44FFFE" stop-opacity="0.1"/>
</linearGradient>
<linearGradient id="paint1_linear_2070_332345" x1="16.3736" y1="8.70858" x2="31.0023" y2="54.4823" gradientUnits="userSpaceOnUse">
<stop stop-color="#00FFFC"/>
<stop offset="1" stop-color="#00D5FF"/>
</linearGradient>
<radialGradient id="paint2_radial_2070_332345" cx="0" cy="0" r="1" gradientUnits="userSpaceOnUse" gradientTransform="translate(29.1148 10.5) rotate(89.9998) scale(42.5 158.977)">
<stop stop-color="#44DAFA" stop-opacity="0"/>
<stop offset="1" stop-color="#00FFFC"/>
</radialGradient>
<linearGradient id="paint3_linear_2070_332345" x1="29.1148" y1="4.46154" x2="29.1148" y2="53.5385" gradientUnits="userSpaceOnUse">
<stop stop-color="#44FFFE" stop-opacity="0.15"/>
<stop offset="1" stop-color="#44FFFE" stop-opacity="0.3"/>
</linearGradient>
<linearGradient id="paint4_linear_2070_332345" x1="39.1147" y1="29" x2="20.1147" y2="29" gradientUnits="userSpaceOnUse">
<stop stop-color="#7DD4FF"/>
<stop offset="1" stop-color="#40DBFA"/>
</linearGradient>
</defs>
</svg>
