<svg width="59" height="66" viewBox="0 0 59 66" fill="none" xmlns="http://www.w3.org/2000/svg">
<g filter="url(#filter0_d_2070_332359)">
<path d="M53.729 14.7881V43.2109L29.1147 57.4229L4.50049 43.2109V14.7881L29.1147 0.576172L53.729 14.7881Z" stroke="url(#paint0_linear_2070_332359)" shape-rendering="crispEdges"/>
</g>
<g filter="url(#filter1_d_2070_332359)">
<path d="M29.1148 4.46154L50.3657 16.7308V41.2692L29.1148 53.5385L7.86382 41.2692V16.7308L29.1148 4.46154Z" fill="url(#paint1_linear_2070_332359)" fill-opacity="0.2" shape-rendering="crispEdges"/>
<path d="M29.1148 4.46154L50.3657 16.7308V41.2692L29.1148 53.5385L7.86382 41.2692V16.7308L29.1148 4.46154Z" fill="url(#paint2_radial_2070_332359)" fill-opacity="0.4" shape-rendering="crispEdges"/>
<path d="M49.8654 17.0192V40.9801L29.1144 52.9606L8.3634 40.9801V17.0192L29.1144 5.03771L49.8654 17.0192Z" stroke="url(#paint3_linear_2070_332359)" shape-rendering="crispEdges"/>
</g>
<path d="M30.646 29.9072C32.9237 29.9073 34.7788 31.738 34.7788 33.998V37.3154H34.7515L34.5405 37.4287C34.4337 37.4815 32.6764 38.3359 29.6313 38.3359C27.7235 38.3263 25.8251 38.0173 24.0063 37.4375L23.7769 37.3672V33.998C23.7769 31.738 25.631 29.9073 27.9087 29.9072H30.646ZM35.9819 26.6064C38.2685 26.6144 40.1147 28.4363 40.1147 30.6973V34.0146H40.0962L39.8755 34.1289C38.5075 34.7111 37.0368 35.0162 35.5493 35.0264V34.0059C35.5476 32.9598 35.2075 31.9418 34.5796 31.1035C33.9516 30.2652 33.069 29.6507 32.063 29.3516C32.812 28.6303 33.246 27.644 33.272 26.6064H35.9819ZM25.2827 26.6152C25.3167 27.6512 25.7616 28.6315 26.519 29.3418V29.3506C24.4355 29.9585 23.0054 31.8505 23.0054 34.0059V35.0088C21.4252 34.912 19.8538 34.6128 18.3442 34.1387L18.1147 34.0684V30.6982C18.1235 28.5158 19.8548 26.7306 22.0337 26.6211L22.2466 26.6152H25.2827ZM29.2749 23.3193C30.1271 23.3194 30.9448 23.6548 31.5474 24.252C32.1499 24.8492 32.4878 25.6594 32.4878 26.5039C32.4878 27.3485 32.1499 28.1586 31.5474 28.7559C30.9448 29.353 30.1271 29.6884 29.2749 29.6885C28.4227 29.6885 27.6051 29.353 27.0024 28.7559C26.3998 28.1586 26.061 27.3485 26.061 26.5039C26.061 25.6593 26.3998 24.8492 27.0024 24.252C27.6051 23.6548 28.4227 23.3193 29.2749 23.3193ZM33.7388 20.127C34.4071 19.9425 35.1172 19.9779 35.7642 20.2266C36.4112 20.4753 36.9607 20.9248 37.3315 21.5088C37.6985 22.0912 37.8662 22.7766 37.8091 23.4619C37.7519 24.1471 37.4734 24.7956 37.0151 25.3096C36.0696 26.3651 34.5424 26.6811 33.2544 26.083C33.1886 25.4844 32.9863 24.9085 32.6636 24.3994C32.3408 23.8903 31.9054 23.4608 31.3911 23.1445C31.4047 22.4571 31.6403 21.7924 32.063 21.249C32.4859 20.7054 33.0738 20.3114 33.7388 20.127ZM23.6147 20C25.3892 20.0001 26.8286 21.4251 26.8286 23.1846V23.3691C26.0252 23.985 25.4866 24.8828 25.3276 25.8857C24.8156 26.2112 24.2239 26.3779 23.6147 26.3779V26.3691C21.8402 26.3691 20.4009 24.9441 20.4009 23.1846C20.4009 21.4251 21.8402 20 23.6147 20Z" fill="url(#paint4_linear_2070_332359)"/>
<defs>
<filter id="filter0_d_2070_332359" x="0" y="0" width="58.2295" height="66" filterUnits="userSpaceOnUse" color-interpolation-filters="sRGB">
<feFlood flood-opacity="0" result="BackgroundImageFix"/>
<feColorMatrix in="SourceAlpha" type="matrix" values="0 0 0 0 0 0 0 0 0 0 0 0 0 0 0 0 0 0 127 0" result="hardAlpha"/>
<feOffset dy="4"/>
<feGaussianBlur stdDeviation="2"/>
<feComposite in2="hardAlpha" operator="out"/>
<feColorMatrix type="matrix" values="0 0 0 0 0 0 0 0 0 0 0 0 0 0 0 0 0 0 0.25 0"/>
<feBlend mode="normal" in2="BackgroundImageFix" result="effect1_dropShadow_2070_332359"/>
<feBlend mode="normal" in="SourceGraphic" in2="effect1_dropShadow_2070_332359" result="shape"/>
</filter>
<filter id="filter1_d_2070_332359" x="3.86383" y="4.46154" width="50.5018" height="57.0769" filterUnits="userSpaceOnUse" color-interpolation-filters="sRGB">
<feFlood flood-opacity="0" result="BackgroundImageFix"/>
<feColorMatrix in="SourceAlpha" type="matrix" values="0 0 0 0 0 0 0 0 0 0 0 0 0 0 0 0 0 0 127 0" result="hardAlpha"/>
<feOffset dy="4"/>
<feGaussianBlur stdDeviation="2"/>
<feComposite in2="hardAlpha" operator="out"/>
<feColorMatrix type="matrix" values="0 0 0 0 0 0 0 0 0 0 0 0 0 0 0 0 0 0 0.25 0"/>
<feBlend mode="normal" in2="BackgroundImageFix" result="effect1_dropShadow_2070_332359"/>
<feBlend mode="normal" in="SourceGraphic" in2="effect1_dropShadow_2070_332359" result="shape"/>
</filter>
<linearGradient id="paint0_linear_2070_332359" x1="29.1147" y1="0" x2="29.1147" y2="58" gradientUnits="userSpaceOnUse">
<stop stop-color="#44FFFE" stop-opacity="0.3"/>
<stop offset="1" stop-color="#44FFFE" stop-opacity="0.1"/>
</linearGradient>
<linearGradient id="paint1_linear_2070_332359" x1="16.3736" y1="8.70858" x2="31.0023" y2="54.4823" gradientUnits="userSpaceOnUse">
<stop stop-color="#00FFFC"/>
<stop offset="1" stop-color="#00D5FF"/>
</linearGradient>
<radialGradient id="paint2_radial_2070_332359" cx="0" cy="0" r="1" gradientUnits="userSpaceOnUse" gradientTransform="translate(29.1148 10.5) rotate(89.9998) scale(42.5 158.977)">
<stop stop-color="#44DAFA" stop-opacity="0"/>
<stop offset="1" stop-color="#00FFFC"/>
</radialGradient>
<linearGradient id="paint3_linear_2070_332359" x1="29.1148" y1="4.46154" x2="29.1148" y2="53.5385" gradientUnits="userSpaceOnUse">
<stop stop-color="#44FFFE" stop-opacity="0.15"/>
<stop offset="1" stop-color="#44FFFE" stop-opacity="0.3"/>
</linearGradient>
<linearGradient id="paint4_linear_2070_332359" x1="40.1147" y1="29.168" x2="18.1147" y2="29.168" gradientUnits="userSpaceOnUse">
<stop stop-color="#7DD4FF"/>
<stop offset="1" stop-color="#40DBFA"/>
</linearGradient>
</defs>
</svg>
